<svg
                      fill="none"
                      height="512"
                      viewbox="0 0 20 20"
                      width="512"
                      xmlns="http://www.w3.org/2000/svg"
                    >
                      <g fill="#fff">
                        <path
                          d="m0 5c0-.55228.447715-1 1-1h18c.5523 0 1 .44772 1 1s-.4477 1-1 1h-18c-.552284 0-1-.44772-1-1z"
                        ></path>
                        <path
                          d="m3 10c0-.55228.44772-1 1-1h12c.5523 0 1 .44772 1 1 0 .5523-.4477 1-1 1h-12c-.55228 0-1-.4477-1-1z"
                        ></path>
                        <path
                          d="m8 14c-.55228 0-1 .4477-1 1s.44772 1 1 1h4c.5523 0 1-.4477 1-1s-.4477-1-1-1z"
                        ></path>
                      </g>
                    </svg>