<svg
                          viewBox="0 0 60 60"
                          fill="#00aef0"
                          xmlns="http://www.w3.org/2000/svg"
                        >
                          <path
                            fill="#F89D20"
                            d="m27.9 16.1c2.2 0 3.9 1.8 3.9 3.9 0 2.2-1.7 4.7-3.9 4.7s-3.9-2.5-3.9-4.7c-.1-2.1 1.7-3.9 3.9-3.9zm9.1 20.4h-18.3c-.6 0-1.1-.5-1-1.1.5-5.1 4.9-9.1 10.2-9.1s9.6 4 10.2 9.1c0 .6-.5 1.1-1.1 1.1z"
                          ></path>
                          <path
                            d="m52.7 46.7-6.6-6.7c2.3-3.5 3.7-7.6 3.7-12.1 0-12.1-9.8-21.9-21.9-21.9s-21.9 9.8-21.9 21.9 9.8 21.9 21.9 21.9c4.5 0 8.7-1.4 12.1-3.7l6.6 6.6c1.7 1.7 4.4 1.7 6.1 0 1.7-1.6 1.7-4.4 0-6zm-24.8-1.4c-9.6 0-17.4-7.8-17.4-17.4s7.8-17.4 17.4-17.4 17.4 7.8 17.4 17.4-7.8 17.4-17.4 17.4z"
                          ></path>
                        </svg>